HIERARCHY
ROOT Hips
{
    OFFSET   0.000000   0.000000   0.000000
    CHANNELS 6 Xposition Yposition Zposition Zrotation Xrotation Yrotation
    JOINT Chest
    {
        OFFSET   0.000000   8.007240   0.000000
        CHANNELS 3 Zrotation Xrotation Yrotation
        JOINT Chest2
        {
            OFFSET   0.000000  22.077100   0.000000
            CHANNELS 3 Zrotation Xrotation Yrotation
            JOINT Neck
            {
                OFFSET   0.000000  23.254800   0.000000
                CHANNELS 3 Zrotation Xrotation Yrotation
                JOINT Head
                {
                    OFFSET   0.000000  14.370000   1.956600
                    CHANNELS 3 Zrotation Xrotation Yrotation
                    End Site
                    {
                        OFFSET   0.000000  19.566000   0.000000
                    }
                }
            }
            JOINT LeftCollar
            {
                OFFSET   3.911900  19.017000  -0.467064
                CHANNELS 3 Zrotation Xrotation Yrotation
                JOINT LeftShoulder
                {
                    OFFSET  10.383700   0.000000   0.000000
                    CHANNELS 3 Zrotation Xrotation Yrotation
                    JOINT LeftElbow
                    {
                        OFFSET  26.662100   0.001476   0.000517
                        CHANNELS 3 Zrotation Xrotation Yrotation
                        JOINT LeftWrist
                        {
                            OFFSET  28.869000  -0.000025  -0.000106
                            CHANNELS 3 Zrotation Xrotation Yrotation
                            JOINT LeftFinger0
                            {
                                OFFSET   2.044660  -2.323460   3.252850
                                CHANNELS 3 Zrotation Xrotation Yrotation
                                JOINT LeftFinger01
                                {
                                    OFFSET   3.088130   0.000000   0.000000
                                    CHANNELS 3 Zrotation Xrotation Yrotation
                                    JOINT LeftFinger02
                                    {
                                        OFFSET   2.639460   0.000000   0.000000
                                        CHANNELS 3 Zrotation Xrotation Yrotation
                                        End Site
                                        {
                                            OFFSET   2.582190   0.000000   0.000000
                                        }
                                    }
                                }
                            }
                            JOINT LeftFinger1
                            {
                                OFFSET   8.364480   0.000000   3.252850
                                CHANNELS 3 Zrotation Xrotation Yrotation
                                JOINT LeftFinger11
                                {
                                    OFFSET   4.646930   0.000000   0.000000
                                    CHANNELS 3 Zrotation Xrotation Yrotation
                                    JOINT LeftFinger12
                                    {
                                        OFFSET   2.323460   0.000000   0.000000
                                        CHANNELS 3 Zrotation Xrotation Yrotation
                                        End Site
                                        {
                                            OFFSET   2.273050   0.000000   0.000000
                                        }
                                    }
                                }
                            }
                            JOINT LeftFinger2
                            {
                                OFFSET   8.364490   0.000015   1.078090
                                CHANNELS 3 Zrotation Xrotation Yrotation
                                JOINT LeftFinger21
                                {
                                    OFFSET   5.111620   0.000000   0.000000
                                    CHANNELS 3 Zrotation Xrotation Yrotation
                                    JOINT LeftFinger22
                                    {
                                        OFFSET   2.788160   0.000016   0.000000
                                        CHANNELS 3 Zrotation Xrotation Yrotation
                                        End Site
                                        {
                                            OFFSET   2.727660   0.000000   0.000000
                                        }
                                    }
                                }
                            }
                            JOINT LeftFinger3
                            {
                                OFFSET   7.899780   0.000017  -1.078090
                                CHANNELS 3 Zrotation Xrotation Yrotation
                                JOINT LeftFinger31
                                {
                                    OFFSET   4.646930   0.000000   0.000000
                                    CHANNELS 3 Zrotation Xrotation Yrotation
                                    JOINT LeftFinger32
                                    {
                                        OFFSET   2.323470   0.000000   0.000000
                                        CHANNELS 3 Zrotation Xrotation Yrotation
                                        End Site
                                        {
                                            OFFSET   2.273050   0.000000   0.000000
                                        }
                                    }
                                }
                            }
                            JOINT LeftFinger4
                            {
                                OFFSET   7.435090   0.000000  -3.252850
                                CHANNELS 3 Zrotation Xrotation Yrotation
                                JOINT LeftFinger41
                                {
                                    OFFSET   3.717550   0.000000   0.000000
                                    CHANNELS 3 Zrotation Xrotation Yrotation
                                    JOINT LeftFinger42
                                    {
                                        OFFSET   1.858770   0.000000   0.000000
                                        CHANNELS 3 Zrotation Xrotation Yrotation
                                        End Site
                                        {
                                            OFFSET   1.818440   0.000000   0.000000
                                        }
                                    }
                                }
                            }
                        }
                    }
                }
            }
            JOINT RightCollar
            {
                OFFSET  -3.911900  19.017000  -0.467063
                CHANNELS 3 Zrotation Xrotation Yrotation
                JOINT RightShoulder
                {
                    OFFSET -10.383700   0.000019   0.000000
                    CHANNELS 3 Zrotation Xrotation Yrotation
                    JOINT RightElbow
                    {
                        OFFSET -26.662100   0.001175   0.000102
                        CHANNELS 3 Zrotation Xrotation Yrotation
                        JOINT RightWrist
                        {
                            OFFSET -28.869000   0.000016  -0.000079
                            CHANNELS 3 Zrotation Xrotation Yrotation
                            JOINT RightFinger0
                            {
                                OFFSET  -2.044660  -2.323490   3.252850
                                CHANNELS 3 Zrotation Xrotation Yrotation
                                JOINT RightFinger01
                                {
                                    OFFSET  -3.088140   0.000000   0.000000
                                    CHANNELS 3 Zrotation Xrotation Yrotation
                                    JOINT RightFinger02
                                    {
                                        OFFSET  -2.639460   0.000000   0.000000
                                        CHANNELS 3 Zrotation Xrotation Yrotation
                                        End Site
                                        {
                                            OFFSET  -2.582190   0.000000   0.000000
                                        }
                                    }
                                }
                            }
                            JOINT RightFinger1
                            {
                                OFFSET  -8.364480   0.000000   3.252850
                                CHANNELS 3 Zrotation Xrotation Yrotation
                                JOINT RightFinger11
                                {
                                    OFFSET  -4.646930   0.000000   0.000000
                                    CHANNELS 3 Zrotation Xrotation Yrotation
                                    JOINT RightFinger12
                                    {
                                        OFFSET  -2.323470   0.000000   0.000000
                                        CHANNELS 3 Zrotation Xrotation Yrotation
                                        End Site
                                        {
                                            OFFSET  -2.273050   0.000000   0.000000
                                        }
                                    }
                                }
                            }
                            JOINT RightFinger2
                            {
                                OFFSET  -8.364480   0.000000   1.078090
                                CHANNELS 3 Zrotation Xrotation Yrotation
                                JOINT RightFinger21
                                {
                                    OFFSET  -5.111620   0.000000   0.000000
                                    CHANNELS 3 Zrotation Xrotation Yrotation
                                    JOINT RightFinger22
                                    {
                                        OFFSET  -2.788160   0.000000   0.000000
                                        CHANNELS 3 Zrotation Xrotation Yrotation
                                        End Site
                                        {
                                            OFFSET  -2.727660   0.000000   0.000000
                                        }
                                    }
                                }
                            }
                            JOINT RightFinger3
                            {
                                OFFSET  -7.899780   0.000000  -1.078090
                                CHANNELS 3 Zrotation Xrotation Yrotation
                                JOINT RightFinger31
                                {
                                    OFFSET  -4.646930   0.000000   0.000000
                                    CHANNELS 3 Zrotation Xrotation Yrotation
                                    JOINT RightFinger32
                                    {
                                        OFFSET  -2.323470   0.000000   0.000000
                                        CHANNELS 3 Zrotation Xrotation Yrotation
                                        End Site
                                        {
                                            OFFSET  -2.273050   0.000000   0.000000
                                        }
                                    }
                                }
                            }
                            JOINT RightFinger4
                            {
                                OFFSET  -7.435090   0.000000  -3.252850
                                CHANNELS 3 Zrotation Xrotation Yrotation
                                JOINT RightFinger41
                                {
                                    OFFSET  -3.717550   0.000000   0.000000
                                    CHANNELS 3 Zrotation Xrotation Yrotation
                                    JOINT RightFinger42
                                    {
                                        OFFSET  -1.858770   0.000000   0.000000
                                        CHANNELS 3 Zrotation Xrotation Yrotation
                                        End Site
                                        {
                                            OFFSET  -1.818440   0.000000   0.000000
                                        }
                                    }
                                }
                            }
                        }
                    }
                }
            }
        }
    }
    JOINT LeftHip
    {
        OFFSET   9.783040   0.000000   0.000000
        CHANNELS 3 Zrotation Xrotation Yrotation
        JOINT LeftKnee
        {
            OFFSET   0.000032 -41.789100  -0.002222
            CHANNELS 3 Zrotation Xrotation Yrotation
            JOINT LeftAnkle
            {
                OFFSET   0.000087 -41.133200  -0.000135
                CHANNELS 3 Zrotation Xrotation Yrotation
                JOINT LeftToe
                {
                    OFFSET   0.000000  -6.358960  14.674500
                    CHANNELS 3 Zrotation Xrotation Yrotation
                    End Site
                    {
                        OFFSET   0.000000   0.000000   3.913200
                    }
                }
            }
        }
    }
    JOINT RightHip
    {
        OFFSET  -9.783040   0.000000   0.000000
        CHANNELS 3 Zrotation Xrotation Yrotation
        JOINT RightKnee
        {
            OFFSET   0.000047 -41.789100  -0.000896
            CHANNELS 3 Zrotation Xrotation Yrotation
            JOINT RightAnkle
            {
                OFFSET  -0.000117 -41.133300  -0.000248
                CHANNELS 3 Zrotation Xrotation Yrotation
                JOINT RightToe
                {
                    OFFSET   0.000000  -6.358970  14.674500
                    CHANNELS 3 Zrotation Xrotation Yrotation
                    End Site
                    {
                        OFFSET   0.000000   0.000000   3.913200
                    }
                }
            }
        }
    }
}
MOTION
Frames: 6
Frame Time:   0.016667
  0.182343  89.481500   1.353340  -3.155420  -6.720330  -1.722680   1.389970   5.351640  -0.389307   2.835280  10.692000  -0.915586   0.105996  -1.326430  -0.003104   0.174109  -2.689750   7.302610  -6.943940   2.122790  -1.701840 -65.943800  22.732300 -10.319600  -3.320060  -7.464300 -10.745200   3.806020  -5.019790   7.447280  38.760700  27.942700 -69.022700 -20.608200   0.006365   0.004371  -5.304070   0.004470   0.002305 -27.902900   5.504550 -10.262100 -23.245500   0.003244  -0.000000 -16.265400   0.002227  -0.001216 -27.213500   3.212730  -6.230140 -28.663700  -0.003411  -0.001834 -19.090000   0.002226  -0.001232 -27.372300   0.710134  -1.370900 -28.668300   0.001216  -0.001623 -19.093100   0.001965  -0.001067 -29.988000   0.631193  -1.093650 -44.991000   0.001497  -0.012250 -29.964000   0.002100   0.000255   9.027550  -0.298842  10.442300  64.431100  18.319500   4.386010   1.344910  -2.466390   8.599910 -13.104700  -8.197990  -1.885920 -37.274300  36.025000  73.339200  33.375100   0.003894  -0.002548  11.681800  -0.002073  -0.002009  40.930700  11.457900  12.911400  34.552300  -0.000654  -0.005504  24.645600   0.006207   0.005099  34.521100   4.784570   6.909100  52.215500   0.005985  -0.002620  34.775500  -0.002957   0.007596  35.816800   2.951400   4.080690  53.884500  -0.009954  -0.004704  35.887100  -0.007429   0.003727  50.698300  -4.786450  -3.901570  76.288400  -0.010376  -0.005072  50.809400  -0.006849   0.009067   2.826360  11.249100   3.929500  -0.012337   0.936460   8.638110  -1.912490  -4.624570   4.833630   0.000000   0.000000   0.000000   0.523627   6.807190  -7.293670   0.907458   4.505470  -5.559920  -1.247720  -3.206280   1.560390   0.000000   0.000000   0.000000
  0.182315  89.481400   1.353760  -3.155940  -6.724160  -1.727730   1.393330   5.355330  -0.387454   2.841920  10.699400  -0.912271   0.099554  -1.331970  -0.003100   0.163521  -2.700960   7.287240  -6.952050   2.115750  -1.711100 -65.932500  22.733000 -10.316000  -3.324010  -7.464190 -10.741400   3.801780  -5.017740   7.450850  38.761700  27.928000 -69.004300 -20.624700   0.006369   0.004371  -5.312320   0.004466   0.002300 -27.905000   5.498860 -10.252400 -23.245800   0.003244   0.000000 -16.265100   0.002223  -0.001215 -27.213700   3.212840  -6.225960 -28.663100  -0.003408  -0.001834 -19.089600   0.002225  -0.001229 -27.372600   0.705232  -1.361590 -28.655800   0.001217  -0.001616 -19.084700   0.001967  -0.001063 -29.983200   0.640987  -1.110820 -44.984200   0.001497  -0.012252 -29.959500   0.002099   0.000258   9.034370  -0.337661  10.450100  64.398500  18.311600   4.395990   1.348220  -2.490890   8.575090 -13.116200  -8.198000  -1.885840 -37.273600  36.024600  73.347100  33.371200   0.003892  -0.002499  11.682000  -0.002083  -0.002018  40.959400  11.458400  12.899600  34.574900  -0.000635  -0.005527  24.666600   0.006220   0.005101  34.529500   4.784690   6.909360  52.228600   0.005974  -0.002626  34.784200  -0.002965   0.007582  35.817200   2.951430   4.080610  53.884500  -0.009991  -0.004713  35.887500  -0.007454   0.003745  50.695500  -4.786590  -3.901340  76.285200  -0.010364  -0.005111  50.806700  -0.006868   0.009079   2.825270  11.262700   3.929590  -0.012176   0.907903   8.638080  -1.910370  -4.610150   4.838990  -0.000000   0.000000   0.000000   0.520543   6.806930  -7.293680   0.909879   4.505550  -5.547200  -1.248410  -3.205790   1.548400  -0.000000   0.000000   0.000000
  0.182287  89.481300   1.354180  -3.157330  -6.730960  -1.739410   1.399470   5.361630  -0.381885   2.853830  10.712100  -0.901811   0.089486  -1.340790  -0.003092   0.146960  -2.718780   7.264240  -6.965130   2.103740  -1.728610 -65.917500  22.734100 -10.308000  -3.329560  -7.463700 -10.733500   3.794050  -5.015640   7.458050  38.753100  27.903700 -68.978900 -20.650700   0.006374   0.004370  -5.325330   0.004460   0.002294 -27.908600   5.488720 -10.234700 -23.246200   0.003245   0.000000 -16.264700   0.002215  -0.001213 -27.214200   3.213030  -6.219020 -28.662500  -0.003402  -0.001835 -19.089200   0.002222  -0.001224 -27.373100   0.697172  -1.346190 -28.643200   0.001219  -0.001602 -19.076400   0.001969  -0.001054 -29.978500   0.650780  -1.128000 -44.977400   0.001497  -0.012259 -29.954900   0.002097   0.000261   9.046410  -0.404735  10.458000  64.344700  18.299900   4.414780   1.352750  -2.528790   8.533250 -13.136500  -8.198010  -1.885760 -37.270200  36.029900  73.368600  33.367300   0.003882  -0.002450  11.683700  -0.002113  -0.002047  40.990600  11.459000  12.886600  34.599400  -0.000598  -0.005586  24.689300   0.006251   0.005108  34.540100   4.784890   6.909800  52.244600   0.005947  -0.002639  34.794900  -0.002984   0.007548  35.817600   2.951470   4.080540  53.884500  -0.010081  -0.004739  35.887800  -0.007514   0.003789  50.688700  -4.786740  -3.900950  76.276300  -0.010339  -0.005199  50.800000  -0.006909   0.009110   2.824210  11.276400   3.929570  -0.012018   0.879346   8.638290  -1.907900  -4.595700   4.848810  -0.000000   0.000000  -0.000000   0.511260   6.806680  -7.293720   0.920490   4.505670  -5.514560  -1.249720  -3.202660   1.526870  -0.000000   0.000000   0.000000
  0.185097  89.481200   1.352820  -3.159410  -6.736410  -1.755310   1.405550   5.366050  -0.371862   2.865180  10.721200  -0.882332   0.082824  -1.345250  -0.003080   0.135989  -2.727720   7.251810  -6.974500   2.094610  -1.747170 -65.914300  22.730100 -10.297600  -3.332220  -7.462220 -10.722100   3.787680  -5.027210   7.467600  38.728500  27.880300 -68.969500 -20.672300   0.006372   0.004342  -5.336110   0.004458   0.002292 -27.913000   5.476570 -10.212000 -23.242900   0.003246   0.000000 -16.264500   0.002205  -0.001213 -27.214800   3.213210  -6.212140 -28.672400  -0.003400  -0.001823 -19.095200   0.002222  -0.001220 -27.373600   0.689437  -1.331190 -28.649500   0.001220  -0.001581 -19.082600   0.001968  -0.001046 -29.980700   0.647223  -1.121690 -44.980600   0.001499  -0.012274 -29.957100   0.002098   0.000261   9.058930  -0.461509  10.454100  64.303400  18.292600   4.427290   1.351000  -2.557690   8.508250 -13.153300  -8.188360  -1.885730 -37.266400  36.038700  73.384800  33.381900   0.003853  -0.002456  11.691700  -0.002164  -0.002101  40.992300  11.459000  12.885900  34.600600  -0.000555  -0.005680  24.690500   0.006299   0.005118  34.542600   4.785100   6.910230  52.248000   0.005907  -0.002654  34.797200  -0.003014   0.007499  35.817500   2.951490   4.080560  53.877600  -0.010220  -0.004781  35.885600  -0.007603   0.003852  50.680500  -4.786700  -3.900570  76.264400  -0.010302  -0.005326  50.792000  -0.006967   0.009159   2.824780  11.269500   3.929170  -0.011644   0.896738   8.641270  -1.908540  -4.604550   4.857930   0.000000   0.000000   0.000000   0.496267   6.817980  -7.305500   0.944929   4.496730  -5.462340  -1.259680  -3.194920   1.504840  -0.000000   0.000000   0.000000
  0.189718  89.481200   1.349510  -3.162370  -6.744060  -1.775750   1.412160   5.372500  -0.359581   2.877430  10.734300  -0.858419   0.076985  -1.352640  -0.003065   0.126380  -2.742640   7.241630  -6.983740   2.083020  -1.767790 -65.917100  22.721500 -10.284200  -3.332820  -7.461220 -10.711400   3.780680  -5.039410   7.476600  38.713600  27.866400 -68.967000 -20.684300   0.006363   0.004298  -5.342130   0.004457   0.002292 -27.915700   5.468880 -10.197400 -23.239700   0.003248  -0.000000 -16.264400   0.002195  -0.001213 -27.215200   3.213330  -6.208020 -28.683900  -0.003397  -0.001804 -19.103500   0.002221  -0.001213 -27.374000   0.684861  -1.322260 -28.655900   0.001221  -0.001556 -19.088900   0.001967  -0.001033 -29.983100   0.639423  -1.108120 -44.983900   0.001501  -0.012293 -29.959300   0.002099   0.000260   9.076170  -0.524883  10.450300  64.262600  18.288500   4.456580   1.342940  -2.573460   8.463720 -13.174000  -8.171020  -1.885780 -37.251400  36.075800  73.445000  33.411700   0.003823  -0.002463  11.705800  -0.002227  -0.002168  40.993900  11.459000  12.885200  34.601900  -0.000509  -0.005790  24.691700   0.006355   0.005132  34.542900   4.785220   6.910490  52.248500   0.005859  -0.002671  34.797500  -0.003049   0.007440  35.816800   2.951500   4.080690  53.870700  -0.010390  -0.004833  35.880300  -0.007713   0.003930  50.666300  -4.786460  -3.900330  76.243200  -0.010263  -0.005461  50.778000  -0.007029   0.009215   2.825550  11.262700   3.928760  -0.010895   0.921832   8.647650  -1.909350  -4.617300   4.869130  -0.000000   0.000000   0.000000   0.480839   6.829140  -7.327290   0.971283   4.487960  -5.400470  -1.276000  -3.185090   1.484090  -0.000000   0.000000   0.000000
  0.192967  89.482100   1.344620  -3.169050  -6.754750  -1.800320   1.418640   5.382440  -0.346908   2.889410  10.754500  -0.833800   0.072765  -1.367260  -0.003049   0.119448  -2.772420   7.232010  -6.992880   2.067500  -1.785250 -65.922700  22.713600 -10.271200  -3.331800  -7.462150 -10.706200   3.772180  -5.040070   7.481330  38.718900  27.886600 -68.988300 -20.678600   0.006340   0.004264  -5.339290   0.004462   0.002293 -27.917900   5.475040 -10.206500 -23.241900   0.003247   0.000026 -16.267400   0.002190  -0.001233 -27.215000   3.213240  -6.213540 -28.685000  -0.003388  -0.001791 -19.106400   0.002220  -0.001198 -27.374000   0.685950  -1.324390 -28.655900   0.001218  -0.001526 -19.088200   0.001968  -0.001010 -29.975500   0.631377  -1.094570 -44.972200   0.001502  -0.012312 -29.951400   0.002098   0.000260   9.101950  -0.599169  10.462400  64.225300  18.302300   4.505090   1.330210  -2.570340   8.387080 -13.211700  -8.149900  -1.888680 -37.242700  36.191000  73.633200  33.444400   0.003810  -0.002442  11.722200  -0.002290  -0.002233  41.007300  11.459300  12.879700  34.612300  -0.000454  -0.005902  24.701300   0.006411   0.005153  34.542800   4.785140   6.910320  52.218800   0.005803  -0.002693  34.783500  -0.003082   0.007375  35.754300   2.951330   4.089240  53.882000  -0.010579  -0.004888  35.870800  -0.007836   0.004022  50.632500  -4.774960  -3.900420  76.192500  -0.010230  -0.005588  50.744300  -0.007085   0.009273   2.827020  11.267300   3.928540  -0.010130   0.935249   8.655470  -1.908310  -4.623910   4.884690  -0.000000   0.000000   0.000000   0.464132   6.772690  -7.350080   0.991354   4.544620  -5.340360  -1.291850  -3.174260   1.471230   0.000000   0.000000   0.000000
